<svg xml:space="preserve" viewBox="0 -8.443 679.709 850.333" height="850.333px" width="679.709px" y="0px" x="0px" id="svg2" version="1.1" xmlns:xlink="http://www.w3.org/1999/xlink" xmlns="http://www.w3.org/2000/svg"><metadata id="metadata10">image/svg+xml</metadata><defs id="defs8"><linearGradient y2="44.564154" x2="415.31337" y1="25.473238" x1="387.81993" id="linearGradient2186" xlink:href="#linearGradient8383" gradientTransform="matrix(-0.27434201,0.25732149,-0.67446669,-0.76146813,504.3204,363.2758)" gradientUnits="userSpaceOnUse"></linearGradient><linearGradient id="linearGradient8383"><stop id="stop8384" offset="0.0000000" style="stop-color: rgb(255, 255, 255); stop-opacity: 0.797753;"></stop><stop id="stop8385" offset="1.0000000" style="stop-color: rgb(255, 255, 255); stop-opacity: 0.191011;"></stop></linearGradient><linearGradient y2="176.12246" x2="173.19873" y1="151.9199" x1="155.59493" id="linearGradient2813" xlink:href="#linearGradient8383" gradientTransform="matrix(-0.63728898,0.59775082,-0.29034641,-0.32779904,504.3204,363.2758)" gradientUnits="userSpaceOnUse"></linearGradient><linearGradient id="linearGradient3046"><stop id="stop3048" offset="0.0000000" style="stop-color: rgb(255, 255, 255); stop-opacity: 0.797753;"></stop><stop id="stop3050" offset="1.0000000" style="stop-color: rgb(255, 255, 255); stop-opacity: 0.191011;"></stop></linearGradient><linearGradient y2="131.07019" x2="253.0356" y1="116.46331" x1="238.13608" id="linearGradient8386" xlink:href="#linearGradient8383" gradientTransform="matrix(-0.45921991,0.41399177,-0.41922281,-0.45490779,545.39516,477.94534)" gradientUnits="userSpaceOnUse"></linearGradient><linearGradient id="linearGradient3053"><stop id="stop3055" offset="0.0000000" style="stop-color: rgb(255, 255, 255); stop-opacity: 0.797753;"></stop><stop id="stop3057" offset="1.0000000" style="stop-color: rgb(255, 255, 255); stop-opacity: 0.191011;"></stop></linearGradient><linearGradient y2="121.24917" x2="249.02288" y1="118.27051" x1="244.25042" id="linearGradient9631" xlink:href="#linearGradient8383" gradientTransform="matrix(-0.45356433,0.42542464,-0.40795661,-0.46058009,548.86292,519.64767)" gradientUnits="userSpaceOnUse"></linearGradient><linearGradient id="linearGradient3060"><stop id="stop3062" offset="0.0000000" style="stop-color: rgb(255, 255, 255); stop-opacity: 0.797753;"></stop><stop id="stop3064" offset="1.0000000" style="stop-color: rgb(255, 255, 255); stop-opacity: 0.191011;"></stop></linearGradient><linearGradient y2="17.920234" x2="270.94325" y1="-4.6202065" x1="247.39654" id="linearGradient2815" xlink:href="#linearGradient8383" gradientTransform="matrix(-0.41698069,0.3911107,-0.4437485,-0.50098891,504.3204,363.2758)" gradientUnits="userSpaceOnUse"></linearGradient><linearGradient id="linearGradient3067"><stop id="stop3069" offset="0.0000000" style="stop-color: rgb(255, 255, 255); stop-opacity: 0.797753;"></stop><stop id="stop3071" offset="1.0000000" style="stop-color: rgb(255, 255, 255); stop-opacity: 0.191011;"></stop></linearGradient><linearGradient y2="0.95831412" x2="0.95472282" y1="0.041685883" x1="0.01973097" id="linearGradient3073" xlink:href="#linearGradient8383"></linearGradient><linearGradient id="linearGradient3075"><stop id="stop3077" offset="0.0000000" style="stop-color: rgb(255, 255, 255); stop-opacity: 0.797753;"></stop><stop id="stop3079" offset="1.0000000" style="stop-color: rgb(255, 255, 255); stop-opacity: 0.191011;"></stop></linearGradient><linearGradient y2="0.43589744" x2="0.76262629" y1="0.092307694" x1="0.21212122" id="linearGradient3081" xlink:href="#linearGradient8383"></linearGradient><linearGradient id="linearGradient3083"><stop id="stop3085" offset="0.0000000" style="stop-color: rgb(255, 255, 255); stop-opacity: 0.797753;"></stop><stop id="stop3087" offset="1.0000000" style="stop-color: rgb(255, 255, 255); stop-opacity: 0.191011;"></stop></linearGradient><linearGradient y2="10.02837" x2="179.82935" y1="-7.8099191" x1="164.00101" id="linearGradient10266" xlink:href="#linearGradient8383" gradientTransform="matrix(-0.66326675,0.6221169,-0.27897457,-0.31496031,504.3204,363.2758)" gradientUnits="userSpaceOnUse"></linearGradient><linearGradient id="linearGradient3090"><stop id="stop3092" offset="0.0000000" style="stop-color: rgb(255, 255, 255); stop-opacity: 0.797753;"></stop><stop id="stop3094" offset="1.0000000" style="stop-color: rgb(255, 255, 255); stop-opacity: 0.191011;"></stop></linearGradient><linearGradient y2="43.687805" x2="996.87861" y1="113.93412" x1="996.87861" id="linearGradient1552" xlink:href="#linearGradient8383" gradientTransform="matrix(-0.11587726,0.10868811,-1.5968153,-1.802793,504.3204,363.2758)" gradientUnits="userSpaceOnUse"></linearGradient><linearGradient id="linearGradient3097"><stop id="stop3099" offset="0.0000000" style="stop-color: rgb(255, 255, 255); stop-opacity: 0.797753;"></stop><stop id="stop3101" offset="1.0000000" style="stop-color: rgb(255, 255, 255); stop-opacity: 0.191011;"></stop></linearGradient><linearGradient y2="37.8961" x2="962.66265" y1="115.39194" x1="962.66265" id="linearGradient1553" xlink:href="#linearGradient1554" gradientTransform="matrix(-0.11587726,0.10868811,-1.5968153,-1.802793,504.3204,363.2758)" gradientUnits="userSpaceOnUse"></linearGradient><linearGradient id="linearGradient1554"><stop id="stop1555" offset="0.0000000" style="stop-color: rgb(0, 0, 0); stop-opacity: 0.224719;"></stop><stop id="stop1560" offset="0.50000000" style="stop-color: rgb(0, 0, 0); stop-opacity: 0.494118;"></stop><stop id="stop1556" offset="1.0000000" style="stop-color: rgb(0, 0, 0); stop-opacity: 0.188235;"></stop></linearGradient><linearGradient y2="148.34329" x2="159.9304" y1="142.9279" x1="148.43222" id="linearGradient2809" xlink:href="#linearGradient8383" gradientTransform="matrix(-0.56935054,0.53402733,-0.3249923,-0.36691399,504.3204,363.2758)" gradientUnits="userSpaceOnUse"></linearGradient><linearGradient id="linearGradient3109"><stop id="stop3111" offset="0.0000000" style="stop-color: rgb(255, 255, 255); stop-opacity: 0.797753;"></stop><stop id="stop3113" offset="1.0000000" style="stop-color: rgb(255, 255, 255); stop-opacity: 0.191011;"></stop></linearGradient><linearGradient y2="160.63186" x2="227.52839" y1="146.28847" x1="215.22815" id="linearGradient2811" xlink:href="#linearGradient8383" gradientTransform="matrix(-0.58414162,0.54790071,-0.31676318,-0.35762339,504.3204,363.2758)" gradientUnits="userSpaceOnUse"></linearGradient><linearGradient id="linearGradient3116"><stop id="stop3118" offset="0.0000000" style="stop-color: rgb(255, 255, 255); stop-opacity: 0.797753;"></stop><stop id="stop3120" offset="1.0000000" style="stop-color: rgb(255, 255, 255); stop-opacity: 0.191011;"></stop></linearGradient><linearGradient spreadMethod="reflect" y2="0.88717949" x2="0.11458334" y1="0.48205128" x1="0.54166669" id="linearGradient5315" xlink:href="#linearGradient8383"></linearGradient><linearGradient id="linearGradient3123"><stop id="stop3125" offset="0.0000000" style="stop-color: rgb(255, 255, 255); stop-opacity: 0.797753;"></stop><stop id="stop3127" offset="1.0000000" style="stop-color: rgb(255, 255, 255); stop-opacity: 0.191011;"></stop></linearGradient><linearGradient xlink:href="#linearGradient8383" id="linearGradient3154" x1="238.13608" y1="116.46331" x2="253.0356" y2="131.07019" gradientTransform="matrix(-0.45921991,0.41399177,-0.41922281,-0.45490779,503.74755,337.41798)" gradientUnits="userSpaceOnUse"></linearGradient><linearGradient xlink:href="#linearGradient8383" id="linearGradient3156" x1="244.25042" y1="118.27051" x2="249.02288" y2="121.24917" gradientTransform="matrix(-0.45356433,0.42542464,-0.40795661,-0.46058009,504.3204,363.2758)" gradientUnits="userSpaceOnUse"></linearGradient><linearGradient xlink:href="#linearGradient8383" id="linearGradient3158" spreadMethod="reflect" x1="354.46308" y1="51.486237" x2="336.85297" y2="68.191059" gradientTransform="matrix(-0.31636874,0.29674087,-0.58486987,-0.66031385,504.3204,363.2758)" gradientUnits="userSpaceOnUse"></linearGradient><linearGradient y2="37.8961" x2="962.66265" y1="115.39194" x1="962.66265" gradientTransform="matrix(-0.11587726,0.10868811,-1.5968153,-1.802793,504.3204,363.2758)" gradientUnits="userSpaceOnUse" id="linearGradient3074" xlink:href="#linearGradient1554"></linearGradient></defs>

	
<g id="layer2">
	<path style="fill:#aa0000;fill-opacity:1;stroke:#000000;stroke-width:6.20000029;stroke-miterlimit:4;stroke-opacity:1;stroke-dasharray:none" d="m 194.523,678.458 c 0,0 6.614,15.487 26.823,25.989 -36.209,-3.752 -36.209,-3.752 -108.809,-57.715 0,0 -3.961,43.834 -65.931,114.523 C 79.136,654.694 75.553,639.777 50.82,587.956 42.047,570.594 30.667,607.882 32.305,624.901 -29.53,420.944 186.221,344.222 186.221,344.222 l -44.287,-31.509 c 20.25595,6.62233 89.96962,3.75634 153.50245,-7.20475 13.73637,-2.36989 27.18381,-5.11819 39.77998,-8.23083 80.72363,-19.9476 126.48566,-54.85847 -10.72143,-101.02642 0,0 21.142,21.526 18.437,35.256 -4.628,-11.563 -19.559,-15.572 -19.559,-15.572 0,0 10.431,34.842 2.871,51.798 -2.607,-20.123 -35.243,-51.926 -35.243,-51.926 0,0 10.803,53.804 -84.81,50.951 -49.721,-2.147 -71.897,6.645 -88.816,23.42 -13.35,13.235 -16.599,15.452 -22.648,15.452 -6.99,0 -14.588,-4.41 -23.823,-13.827 -3.623,-3.694 -4.508,-6.947 -4.458,-16.388 0.054,-10.16 1.11,-13.324 7.682,-23.017 7.146,-10.539 8.701,-11.632 25.032,-17.595 9.577,-3.498 22.517,-8.674 28.755,-11.504 10.032,-4.55 11.571,-6.067 13.315,-13.132 2.102,-8.513 3.367,-9.416 28.241,-20.158 9.034,-3.902 16.433,-9.726 30.484,-23.992 16.791,-17.049 16.305,-21.761 16.742,-23.997 2.126,-28.576 -56.083,-0.082 -56.083,-0.082 0,0 12.359,-17.964 23.429,-25.727 30.092,-21.101 69.778,-1.523 69.778,-1.523 0,0 68.314,-77.578 165.77,-110.162 -4.705,3.168 -69.582,68.005 -68.519,75.294 13.397,0.29 20.538,7.561 20.538,7.561 -28.037,-1.063 -44.774,25.584 -44.774,25.584 12.987,-7.459 87.718,-18.98 87.718,-18.98 0,0 -10.271,6.69 -9.931,9.762 75.18,-21.638 232.268,-17.322 232.268,-17.322 -55.755,7.685 -163.767,48.154 -163.767,48.154 0,0 79.679,-5.803 125.542,10.257 -44.863,-2.393 -75.326,7.56 -90.639,15.867 58.441,31.073 98.813,129.557 98.813,129.557 0,0 -88.53,-96.203 -122.055,-86.197 0,0 122.684,184.38 14.609,257.953 5.074,-24.572 17.675,-115.897 -19.125,-135.901 -1.7e-4,1.1e-4 -101.13878,78.26401 -161.94176,103.99883 -7.89116,3.33993 -14.60839,6.58636 -20.85065,7.8402 -15.77675,3.16897 -30.17082,7.44327 -43.65559,7.12597 21.981,-7.636 29.573,-21.449 29.573,-21.449 -86.925,-18.187 -113.925,82.813 -96.56,121.846 -25.033,-9.032 -61.144,-53.433 -61.144,-53.433 0,0 5.718,99.022 126.081,85.045 -18.226,10.896 -44.637,22.022 -73.802,20.233 6.416,18.872 131.705,-2.4 139.458,-17.396 3.752,-7.254 21.614,-42.998 -22.813,-57.439 26.645,-14.168 68.57,39.254 68.57,39.254 0,0 7.797,-5.299 44.998,-11.798 37.201,-6.499 -26.332,-18.948 -26.332,-18.948 55.408,-0.583 81.521,9.249 81.521,9.249 9.138,-23.55 -103.337,-82.377 -103.337,-82.377 0,0 496.679,151.096 222.056,350.67 26.711,-67.76 26.813,-84.333 14.947,-119.558 -4.281,-12.708 -9.398,-22.516 -13.124,-25.152 -1.022,-0.723 3.722,8.785 -14.721,22.387 -24.225,-82.769 -127.818,-82.081 -138.267,-76.945 -57.126,22.426 0.696,58.563 26.624,44.009 -15.011,21.304 -58.09,21.02 -58.09,21.02 0,0 54.674,46.147 102.717,25.392 -31.543,77.256 -170.705,-49.23 -170.938,-49.651 -0.233,-0.421 -48.208,16.001 -48.208,16.001 0,0 62.426,51.938 92.265,155.797 C 307.138,721.445 194.523,678.458 194.523,678.458 z m 36.6,-486.846 c 20.22,-21.393 18.625,-24.149 -6.431,-11.109 -14.519,7.557 -39.887,21.442 -37.445,28.562 16.727,0.651 26.759,0.657 26.759,0.657 z" id="path1937"></path>
<g style="stroke-width:4.39086575;stroke-miterlimit:4;stroke-dasharray:none" transform="matrix(-1.6403129,-0.00931845,0.00958949,-1.5939506,723.29467,804.56222)" id="g5316"><path id="path2160" d="m 247.8125,119.40625 0,0.0312 -12.84375,1.3125 c 0.67054,5.17273 -0.85994,18.02814 -4.5,29.90625 2.49057,3.64006 7.1773,11.66694 7.65625,17.03125 l 9.78125,-0.0937 0.0937,0 9.78125,0.0937 c 0.47895,-5.36431 5.16568,-13.39119 7.65625,-17.03125 -3.64006,-11.87811 -5.17053,-24.73352 -4.5,-29.90625 l -12.84375,-1.3125 0,-0.0312 -0.15625,0 -0.125,0 z" style="fill:#dadac7;fill-opacity:1;fill-rule:evenodd;stroke:#000000;stroke-width:4.39086575;stroke-linecap:butt;stroke-linejoin:miter;stroke-opacity:1;stroke-miterlimit:4;stroke-dasharray:none"></path><path id="path908" d="m 235.19604,237.37666 c -0.0781,-26.76845 0.12528,-51.64769 0.0501,-78.44714 4.56311,-7.14256 2.628,-20.76241 2.43481,-31.14362 l 20.57842,0 c 0.51382,11.26668 -2.22315,23.1516 3.02454,30.52174 0.18622,22.92305 0.31162,45.03541 0.47874,67.98325 m 0.58928,86.81452 c 0.10384,37.86975 -0.0311,74.03131 -0.38949,112.04992 -0.79466,24.71218 -6.73561,47.88048 -10.10341,71.82072 -4.95265,-23.51652 -13.5077,-45.3605 -14.85795,-70.54956 -0.60159,-35.88471 -0.95156,-69.7644 -1.18408,-105.44805 -0.004,-0.57563 -0.007,-1.15173 -0.0112,-1.72831" style="fill:#cacbcb;fill-opacity:1;fill-rule:evenodd;stroke:#000000;stroke-width:4.3908658;stroke-linecap:butt;stroke-linejoin:round;stroke-miterlimit:4;stroke-opacity:1;stroke-dasharray:none"></path><path id="path4029" d="m 233.34375,37.375 c 0.16853,1.116509 1.08426,1.247311 1,3.375 1.51677,23.193897 2.00559,43.101327 1.5,65.03125 -0.16853,1.39037 -0.32308,3.26589 -1.25,4.65625 l 13.03125,0.21875 13,-0.21875 c -0.92691,-1.39036 -1.08147,-3.26588 -1.25,-4.65625 -0.50559,-21.929923 -0.0168,-41.837353 1.5,-65.03125 -0.0843,-2.127689 0.86272,-2.258491 1.03125,-3.375 L 247.625,37.59375 233.34375,37.375 z" style="fill:#cacbcb;fill-opacity:1;fill-rule:evenodd;stroke:#000000;stroke-width:4.39086575;stroke-linecap:butt;stroke-linejoin:round;stroke-opacity:1;stroke-miterlimit:4;stroke-dasharray:none"></path><path id="path1561" d="m 234.39833,38.183318 c 0.16853,1.116509 1.08426,1.247311 1,3.375 1.51677,23.193897 2.00559,40.900621 1.5,62.830552 -0.16853,1.39037 -0.32308,3.26589 -1.25,4.65625 l 12.15097,0.21875 11.67958,-0.21875 c -0.92691,-1.39036 -1.08147,-3.26588 -1.25,-4.65625 -0.50559,-21.929931 -0.0168,-39.636655 1.5,-62.830552 -0.0843,-2.127689 0.86272,-2.258491 1.03125,-3.375 l -12.96083,0.21875 -13.40097,-0.21875 z" style="fill:url(#linearGradient2186);fill-opacity:1;fill-rule:evenodd;stroke:none;stroke-width:4.39086575;stroke-miterlimit:4;stroke-dasharray:none"></path><path id="path2818" d="m 260.90625,44.09375 c -1.13546,0.07097 -7.32217,13.720138 -13.40625,27.59375 -5.97277,-13.600009 -12.0437,-26.930465 -13.15625,-27 -2.04036,-0.272049 -2.06058,3.40453 -0.15625,6.125 0.76072,1.077681 5.97245,13.525056 11.1875,25.71875 -4.36741,10.047834 -9.09198,21.062611 -9.625,21.96875 -1.76831,2.85649 -1.63592,6.13784 0.8125,5.59375 1.04148,-0.24506 5.89392,-11.059667 10.9375,-22.71875 5.14574,11.912404 10.12703,23.03172 11.1875,23.28125 2.44843,0.54409 2.58081,-2.70601 0.8125,-5.5625 -0.54734,-0.930475 -5.35223,-12.165606 -9.875,-22.5625 5.34915,-12.493693 10.65932,-25.210067 11.4375,-26.3125 1.90433,-2.72047 1.88411,-6.397047 -0.15625,-6.125 z" style="fill:#9b9b5d;fill-opacity:1;fill-rule:evenodd;stroke:#000000;stroke-width:4.39086575;stroke-linecap:butt;stroke-linejoin:miter;stroke-opacity:1;stroke-miterlimit:4;stroke-dasharray:none"></path><path id="path6517" d="m 220.04461,115.50288 c -7.15011,-0.53625 -19.48405,-3.03879 -26.27665,-1.78753 -5.72009,1.07252 -7.50762,4.46882 -8.04388,8.58013 0,3.93257 0.53626,6.0776 5.18383,9.4739 4.29006,2.68129 13.04895,3.93256 13.04895,-4.29007 -0.53626,-5.00507 -3.21755,-4.11131 -5.54133,-2.68128 4.29006,-3.93257 15.55149,-3.93257 21.62908,-3.57506 0,-2.32379 -1.07251,-3.93256 0,-5.72009 z" style="fill:#9b9b5d;fill-opacity:1;fill-rule:evenodd;stroke:#000000;stroke-width:4.39086575;stroke-linecap:butt;stroke-linejoin:round;stroke-opacity:1;stroke-miterlimit:4;stroke-dasharray:none"></path><path id="path7760" d="m 276.53046,115.28847 c 7.15011,-0.53625 19.48405,-3.03879 26.27665,-1.78753 5.72009,1.07252 7.50762,4.46882 8.04388,8.58013 0,3.93257 -0.53626,6.0776 -5.18383,9.4739 -4.29006,2.68129 -13.04895,3.93256 -13.04895,-4.29007 0.53626,-5.00507 3.21755,-4.11131 5.54133,-2.68128 -4.29006,-3.93257 -15.55149,-3.93257 -21.62908,-3.57506 0,-2.32379 1.07251,-3.93256 0,-5.72009 z" style="fill:#9b9b5d;fill-opacity:1;fill-rule:evenodd;stroke:#000000;stroke-width:4.39086575;stroke-linecap:butt;stroke-linejoin:round;stroke-opacity:1;stroke-miterlimit:4;stroke-dasharray:none"></path><path id="path1533" d="m 247.40625,110.25 -13.03125,0.0833 c 0,0 1.54049,3.00387 0,4.10422 -1.54049,1.10035 -12.54005,0.65757 -16.28125,0.4375 -0.44013,1.54049 -0.22139,4.61312 0.21875,6.59375 7.92253,-0.44014 14.52641,11.22931 25.75,9.46875 -1.98065,2.20072 -2.63688,6.82263 -0.65625,10.34375 1.76057,-3.7412 3.6196,-9.11558 4.4375,-9.5625 0.88028,0.44014 2.20818,5.72755 3.96875,9.46875 1.98063,-3.52112 1.32438,-8.14303 -0.65625,-10.34375 11.22359,1.76056 17.82747,-9.90889 25.75,-9.46875 0.44014,-1.98063 0.6589,-5.05326 0.21875,-6.59375 -3.7412,0.22007 -14.74077,0.6316 -16.28125,-0.46875 -1.54049,-1.10035 -0.13548,-3.66656 -0.13547,-3.66656 0,0 -13.30201,-0.39676 -13.30203,-0.39594 z" style="fill:#9b9b5d;fill-opacity:1;fill-rule:evenodd;stroke:#000000;stroke-width:4.39086575;stroke-linecap:butt;stroke-linejoin:round;stroke-opacity:1;stroke-miterlimit:4;stroke-dasharray:none"></path><path id="path2812" d="m 247.59616,111.02487 -12.37104,-0.13679 c 0,0 1.54049,2.7838 0,3.88415 -1.54049,1.10035 -12.54005,1.09771 -16.28125,0.87764 -0.44013,1.54049 -0.66153,3.2927 -0.22139,5.27333 7.92253,-0.44014 14.74648,11.22931 25.97007,9.46875 -1.98065,2.20072 -3.07702,5.94235 -1.09639,9.46347 1.76057,-3.7412 3.39953,-9.11558 4.21743,-9.5625 0.88028,0.44014 2.20818,5.72755 3.96875,9.46875 1.98063,-3.52112 0.004,-7.26275 -1.97667,-9.46347 11.22359,1.76056 18.48768,-9.90889 26.41021,-9.46875 0.44014,-1.98063 0.21876,-3.95291 -0.22139,-5.4934 -3.7412,0.22007 -13.64042,0.85167 -15.1809,-0.24868 -1.54049,-1.10035 -1.67597,-3.00635 -1.23582,-3.88663 -2.20071,0.44014 -11.98159,-0.17669 -11.98161,-0.17587 z" style="fill:url(#linearGradient2813);fill-opacity:1;fill-rule:evenodd;stroke:none;stroke-width:4.39086575;stroke-miterlimit:4;stroke-dasharray:none"></path><path id="path5274" d="m 233.4574,37.92204 c 0.16853,-1.116509 1.08426,-1.247311 1,-3.375 -0.2195,-8.684744 -5.41067,-11.04607 -5.68039,-24.8386295 -0.0162,-20.1914515 37.1171,-21.4474905 38.06075,-1.297261 0.43787,14.8539555 -5.88297,17.9905935 -5.84911,26.1358905 -0.0843,2.127689 0.86272,2.258491 1.03125,3.375 l -14.28125,-0.21875 -14.28125,0.21875 z" style="fill:#9b9b5d;fill-opacity:1;fill-rule:evenodd;stroke:#000000;stroke-width:4.39086575;stroke-linecap:butt;stroke-linejoin:round;stroke-opacity:1;stroke-miterlimit:4;stroke-dasharray:none"></path><g style="stroke-width:4.39086575;stroke-miterlimit:4;stroke-dasharray:none" id="g9632"><path id="path7761" d="m 258.10463,121.41252 c 0,3.99828 -3.38209,7.24325 -7.5493,7.24325 -4.16722,0 -7.54931,-3.24497 -7.54931,-7.24325 0,-3.99827 3.38209,-7.24325 7.54931,-7.24325 4.16721,0 7.5493,3.24498 7.5493,7.24325 z" style="fill:url(#linearGradient3154);fill-opacity:1;fill-rule:evenodd;stroke:#000000;stroke-width:4.02493556;stroke-linecap:butt;stroke-linejoin:miter;stroke-miterlimit:4;stroke-opacity:1;stroke-dasharray:none" transform="matrix(1.06951,0,0,1.11275,-19.7718,-14.0329)"></path><path id="path8387" d="m 252.59569,121.99062 c 0,2.0273 -1.67581,3.67264 -3.74065,3.67264 -2.06484,0 -3.74065,-1.64534 -3.74065,-3.67264 0,-2.02729 1.67581,-3.67263 3.74065,-3.67263 2.06484,0 3.74065,1.64534 3.74065,3.67263 z" style="fill:#004691;fill-opacity:1;fill-rule:evenodd;stroke:#000000;stroke-width:3.06894744;stroke-linecap:butt;stroke-linejoin:miter;stroke-miterlimit:4;stroke-opacity:1;stroke-dasharray:none" transform="matrix(1.43106,0,0,1.43042,-107.702,-53.432)"></path><path id="path9009" d="m 246.1258,124.61983 c -4.95318,-3.53798 0.11792,-9.55255 3.89178,-7.54769 6.4863,4.59938 0.11793,10.14221 -3.89178,7.54769 z" style="fill:url(#linearGradient3156);fill-opacity:1;fill-rule:evenodd;stroke:none;stroke-width:4.39086575;stroke-miterlimit:4;stroke-dasharray:none"></path></g><path id="path2814" d="m 235.199,36.967554 c 0.16853,-1.116509 -0.23616,-0.80717 -0.32042,-2.934859 -0.2195,-8.684744 -4.97053,-11.04607 -5.24025,-24.8386293 -0.15225,-19.2392867 35.13647,-18.8066461 36.30019,-1.0771906 0.43787,14.8539549 -5.00269,17.7705229 -4.96883,25.9158199 -0.0843,2.127689 -0.89784,2.038421 -0.72931,3.15493 l -12.52069,0.0013 -12.52069,-0.221391 z" style="fill:url(#linearGradient2815);fill-opacity:1;fill-rule:evenodd;stroke:none;stroke-width:4.39086575;stroke-miterlimit:4;stroke-dasharray:none"></path><g style="stroke-width:4.39086575;stroke-miterlimit:4;stroke-dasharray:none" transform="translate(-0.421984,-106.953)" id="g9636"><path id="path9637" d="m 258.10463,121.41252 c 0,3.99828 -3.38209,7.24325 -7.5493,7.24325 -4.16722,0 -7.54931,-3.24497 -7.54931,-7.24325 0,-3.99827 3.38209,-7.24325 7.54931,-7.24325 4.16721,0 7.5493,3.24498 7.5493,7.24325 z" style="fill:url(#linearGradient8386);fill-opacity:1;fill-rule:evenodd;stroke:#000000;stroke-width:4.02493556;stroke-linecap:butt;stroke-linejoin:miter;stroke-miterlimit:4;stroke-opacity:1;stroke-dasharray:none" transform="matrix(1.06951,0,0,1.11275,-19.7718,-14.0329)"></path><path id="path9638" d="m 252.59569,121.99062 c 0,2.0273 -1.67581,3.67264 -3.74065,3.67264 -2.06484,0 -3.74065,-1.64534 -3.74065,-3.67264 0,-2.02729 1.67581,-3.67263 3.74065,-3.67263 2.06484,0 3.74065,1.64534 3.74065,3.67263 z" style="fill:#004691;fill-opacity:1;fill-rule:evenodd;stroke:#000000;stroke-width:3.06894744;stroke-linecap:butt;stroke-linejoin:miter;stroke-miterlimit:4;stroke-opacity:1;stroke-dasharray:none" transform="matrix(1.43106,0,0,1.43042,-107.702,-53.432)"></path><path id="path9639" d="m 246.1258,124.61983 c -4.95318,-3.53798 0.11792,-9.55255 3.89178,-7.54769 6.4863,4.59938 0.11793,10.14221 -3.89178,7.54769 z" style="fill:url(#linearGradient9631);fill-opacity:1;fill-rule:evenodd;stroke:none;stroke-width:4.39086575;stroke-miterlimit:4;stroke-dasharray:none"></path></g><path id="path9644" d="m 229.5296,9.6625292 10.03706,1.8673598 c 0.62245,-2.5676193 3.26787,-5.9133054 7.93628,-6.0689186 4.20155,-0.1556133 7.62504,2.7232325 8.55872,5.9133056 l 9.95925,-0.778067 c 0.77807,-2.5676195 -0.38902,-16.0281688 -17.97333,-16.0281688 -14.23861,0 -19.45166,10.1926704 -18.51798,15.094489 z" style="fill:url(#linearGradient10266);fill-opacity:1;fill-rule:evenodd;stroke:none;stroke-width:4.39086575;stroke-miterlimit:4;stroke-dasharray:none"></path><path id="path2187" d="m 217.20428,116.04019 c -7.15011,-0.53625 -16.62313,-2.81872 -23.41573,-1.56746 -5.72009,1.07252 -6.84741,4.02868 -7.38367,8.13999 0,3.93257 0.31619,4.97725 4.96376,8.37355 4.29006,2.68129 11.50846,4.81284 11.50846,-3.40979 -0.53626,-5.00507 -3.21755,-3.4511 -5.54133,-2.02107 4.29006,-3.93257 13.79092,-5.47306 19.86851,-5.11555 0,-2.32379 -1.07251,-2.61214 0,-4.39967 z" style="fill:url(#linearGradient2809);fill-opacity:1;fill-rule:evenodd;stroke:none;stroke-width:4.39086575;stroke-miterlimit:4;stroke-dasharray:none"></path><path id="path2810" d="m 277.95417,115.60005 c 7.15011,-0.53625 17.94356,-2.37858 24.73616,-1.12732 5.72009,1.07252 6.84741,3.58854 7.38367,7.69985 0,3.93257 0.34402,4.97725 -4.30355,8.37355 -4.29006,2.68129 -12.16867,5.25298 -12.16867,-2.96965 0.53626,-5.00507 4.09783,-3.4511 6.42161,-2.02107 -4.29006,-3.93257 -15.77156,-5.69313 -21.84915,-5.33562 0,-2.32379 0.85244,-2.83221 -0.22007,-4.61974 z" style="fill:url(#linearGradient2811);fill-opacity:1;fill-rule:evenodd;stroke:none;stroke-width:4.39086575;stroke-miterlimit:4;stroke-dasharray:none"></path><path id="path4693" d="m 260.84406,45.030355 c -1.13546,0.07097 -7.05012,14.400256 -13.1342,28.273868 -5.97277,-13.600009 -12.0437,-27.066489 -13.15625,-27.952165 -2.04036,-0.272049 -1.51649,2.860436 0.38784,5.580906 0.76072,1.077681 5.97245,13.389032 11.1875,25.582726 -4.36741,10.047834 -9.09198,21.062607 -9.625,21.968747 -1.08819,2.992513 -2.45206,5.321703 -0.004,4.777613 1.04148,-0.24506 6.02995,-11.875805 11.07353,-23.534892 5.14574,11.912407 10.39907,23.711832 11.45954,23.961362 1.76832,0.27204 1.76467,-1.07373 -0.004,-3.930215 -0.54734,-0.93047 -5.08018,-12.709697 -9.60295,-23.106591 4.80506,-12.901764 10.38727,-25.618138 11.16545,-26.720571 1.90433,-2.72047 2.29218,-5.172835 0.25182,-4.900788 z" style="fill:url(#linearGradient3158);fill-opacity:1;fill-rule:evenodd;stroke:none;stroke-width:4.39086575;stroke-miterlimit:4;stroke-dasharray:none"></path><path id="path930" d="m 237.0938,237.375 c 0.0791,24.14863 0.18038,51.26813 0.34375,77.625 m 0.0817,3.08037 c 0.19449,31.3766 0.38924,58.60339 0.76204,81.60713 0.1864,11.50187 0.41261,21.17205 0.65625,28.25 0.12182,3.53898 0.23548,6.43215 0.375,8.59375 0.13856,2.14679 0.19753,3.31703 0.53125,4.46875 l -0.0312,0 c 1.26285,4.64094 2.67451,8.15574 4.3125,10.6875 1.63799,2.53176 3.78076,4.37039 6.40625,4.1875 2.62549,-0.18289 4.55412,-2.19159 6.09375,-4.9375 1.53963,-2.74591 2.83614,-6.5291 3.96875,-11.46875 l 0,-0.0625 0.0312,-0.0312 c 0.18112,-0.99614 0.16692,-2.11031 0.21875,-4.25 0.0518,-2.13969 0.10274,-5.05161 0.125,-8.625 0.0445,-7.14677 0.02,-16.98562 -0.0312,-28.6875 -0.10251,-23.40376 -0.36618,-54.27621 -0.6875,-86.0625 m 0,0 c -0.28202,-27.89904 -0.61368,-56.5055 -0.90625,-81.34375 m 0,0 C 258.87352,190.48452 258.5,160.00874 258.5,158.25 l 0,-0.0937 0,-0.0937 c -0.40181,-4.32114 -2.29472,-7.42907 -4.09375,-10.375 -1.79903,-2.94593 -3.56155,-5.81297 -4.5625,-10.21875 l -4.25,-0.125 0,-1e-4 c -1.36241,4.76842 -3.22941,8.06846 -4.9375,11 -1.70809,2.93154 -3.35982,5.56166 -3.75,8.9375 l -0.0312,0.15625 0,0.125 c 0.0392,3.68019 0.0791,37.18644 0.21875,79.8125 m 17.87495,-6.90625 c 0.29255,24.83677 0.62427,53.41716 0.90625,81.3125 m 0,0 c 0.32127,31.78209 0.58506,62.67516 0.6875,86.0625 0.0512,11.69367 0.0443,21.50755 0,28.625 -0.0222,3.55872 -0.0431,6.43879 -0.0937,8.53125 -0.0494,2.03797 -0.16246,3.49122 -0.15625,3.5 -1.07499,4.68836 -2.32767,8.13467 -3.53125,10.28125 -1.20358,2.14658 -2.22521,2.69525 -2.5625,2.71875 -0.33729,0.0235 -1.17792,-0.28893 -2.40625,-2.1875 -1.22833,-1.89857 -2.55904,-5.09204 -3.75,-9.46875 l 0,-0.0312 0,-0.0312 c 0.0328,0.11194 -0.24048,-1.44709 -0.375,-3.53125 -0.13452,-2.08416 -0.25404,-4.95466 -0.375,-8.46875 -0.24193,-7.02817 -0.43883,-16.66861 -0.625,-28.15625 -0.37234,-22.97527 -0.64931,-53.28708 -0.84375,-84.65625 m 0,0 c -0.16333,-26.35063 -0.26465,-53.44792 -0.34375,-77.59375 m 0,0 c -0.1394,-42.53775 -0.17705,-75.65566 -0.21875,-79.6875 0.27456,-2.14081 1.45442,-4.23544 3.15625,-7.15625 1.00082,-1.71768 2.11568,-3.82986 3.1875,-6.21875 l -5e-5,-1e-4 c 0.98846,2.14949 2.07254,4.03518 3.0625,5.65625 1.76011,2.88219 3.0756,5.161 3.40625,8.375 0.001,2.3854 0.4054,32.25746 0.875,72.125" style="font-size:medium;font-style:normal;font-variant:normal;font-weight:normal;font-stretch:normal;text-indent:0;text-align:start;text-decoration:none;line-height:normal;letter-spacing:normal;word-spacing:normal;text-transform:none;direction:ltr;block-progression:tb;writing-mode:lr-tb;text-anchor:start;baseline-shift:baseline;color:#000000;fill:url(#linearGradient3074);fill-opacity:1;fill-rule:evenodd;stroke:none;stroke-width:4.3908658;marker:none;visibility:visible;display:inline;overflow:visible;enable-background:accumulate;font-family:Sans;-inkscape-font-specification:Sans"></path></g></g>
<path id="path6" d="M326.838,112.967"></path>
</svg>